<svg width="48" height="44" viewBox="0 0 48 44" fill="none" xmlns="http://www.w3.org/2000/svg">
<path fill-rule="evenodd" clip-rule="evenodd" d="M34.0949 15.6319C35.3859 16.3434 36.8158 16.4942 38.3994 15.755C39.9764 15.019 41.725 11.0506 41.6005 9.69344C40.0776 10.1501 38.7256 10.8349 37.5688 11.6791C36.0715 12.7717 34.9007 14.1314 34.109 15.6086C34.1047 15.6167 34.0999 15.6245 34.0949 15.6319ZM41.3907 9.23622C40.6261 8.58525 37.9042 9.51359 36.5681 10.1564C35.1113 10.8573 33.6999 12.6212 33.0816 13.7875L33 15.3347L33.6435 15.4512C33.6478 15.4249 33.6564 15.399 33.6696 15.3742C34.4956 13.8328 35.7162 12.4148 37.2758 11.2767C38.4601 10.4124 39.8399 9.7094 41.3907 9.23622Z" fill="#FF8C00"/>
<path fill-rule="evenodd" clip-rule="evenodd" d="M20.5865 10.1117C18.9036 7.07439 15.7492 4.86518 12.2197 4.70421C7.38132 4.4836 3.70498 8.00608 3.47267 12.6792C3.3498 15.1511 5.27211 17.9583 8.05116 17.7412C11.9765 16.9116 8.56996 22.2171 3.66335 19.4506C1.58536 18.279 0.221737 15.5867 0.0292995 12.8188C-0.218658 9.25248 1.10919 5.54639 3.9371 3.04121C8.8145 -1.27957 16.3895 -0.957629 20.8563 3.76024C22.492 5.48786 23.4832 7.56539 23.8441 9.71695L23.4745 10.7799L21 11.3347L20.5864 10.1117L20.5865 10.1117Z" fill="#FF8C00"/>
<path fill-rule="evenodd" clip-rule="evenodd" d="M24.1543 9.7206C24.5147 7.56775 25.5061 5.48886 27.1427 3.76024C31.6095 -0.957628 39.1845 -1.27956 44.0619 3.04121C46.8899 5.54639 48.2177 9.25247 47.9697 12.8188C47.7773 15.5867 46.4137 18.2791 44.3357 19.4506C39.4291 22.2171 36.0226 16.9116 39.9479 17.7412C42.7269 17.9583 44.6492 15.1511 44.5264 12.6792C44.2941 8.00611 40.6177 4.48361 35.7794 4.70421C32.2685 4.86432 29.1285 7.05094 27.4391 10.0635L24.4114 11.6783L24.1543 9.72055L24.1543 9.7206Z" fill="#FF8C00"/>
<path fill-rule="evenodd" clip-rule="evenodd" d="M13.9045 15.6319C12.6135 16.3434 11.1836 16.4942 9.59994 15.755C8.02303 15.019 6.27442 11.0506 6.39886 9.69344C7.92181 10.1501 9.27377 10.8349 10.4306 11.6791C11.9278 12.7717 13.0987 14.1314 13.8903 15.6086C13.8947 15.6167 13.8994 15.6245 13.9045 15.6319ZM6.6087 9.23622C7.37331 8.58525 10.0952 9.51359 11.4313 10.1564C12.8881 10.8573 14.2995 12.6212 14.9178 13.7875L14.9994 15.3347L14.3559 15.4512C14.3515 15.4249 14.343 15.399 14.3298 15.3742C13.5037 13.8328 12.2832 12.4148 10.7236 11.2767C9.53925 10.4124 8.15947 9.7094 6.6087 9.23622Z" fill="#FF8C00"/>
<path fill-rule="evenodd" clip-rule="evenodd" d="M34.9604 20.0892C36.4927 10.9768 29.3311 9.05518 23.7089 9.05518C18.0867 9.05518 11.7256 12.5241 12.9932 20.0892C14.7668 30.6742 18.7604 29.9378 18.8607 38.416C20.4233 39.2878 21.9593 39.7949 23.4668 39.9131V36.1195L20.8826 33.5353C20.5864 33.239 20.5864 32.7586 20.8826 32.4623C21.1789 32.1661 21.6593 32.1661 21.9556 32.4623L24.0107 34.5174L26.0658 32.4623C26.3621 32.1661 26.8425 32.1661 27.1388 32.4623C27.435 32.7586 27.435 33.239 27.1388 33.5353L24.5472 36.1268L24.4785 36.0582V36.0583L24.5472 36.1269C24.5253 36.1488 24.5024 36.1691 24.4785 36.1878V39.9337C26.0354 39.8736 27.5739 39.3863 29.0926 38.4448C29.1816 29.0735 33.4442 29.1062 34.9604 20.0892ZM18.9364 39.6007C19.7951 44.4953 28.0218 44.2869 28.995 39.6688C27.3828 40.5437 25.7409 40.9611 24.0711 40.9475C22.3758 40.9337 20.6638 40.4754 18.9364 39.6007ZM18.8045 25.3744C18.7849 25.6526 18.9946 25.8942 19.2728 25.9138C19.5511 25.9334 19.7926 25.7237 19.8123 25.4455C19.8563 24.8278 19.8816 24.1994 19.864 23.5895C19.846 22.9669 19.783 22.3767 19.6501 21.8563C19.3926 20.8494 18.832 20.0579 18.0947 19.4769C17.2929 18.8452 16.2845 18.4684 15.2378 18.3397L15.2378 18.3395C14.9606 18.3054 14.7081 18.5026 14.6741 18.7798L14.6726 18.794C14.6568 18.9083 14.6472 19.0274 14.6437 19.1507C14.6136 20.1792 15.0787 21.0547 15.7899 21.7055C16.4748 22.3321 17.3919 22.7479 18.3032 22.8819C18.4662 22.9058 18.6363 22.9208 18.8117 22.9264C18.8352 23.1493 18.8494 23.3805 18.8562 23.6171C18.8723 24.1738 18.8474 24.7734 18.8045 25.3744ZM18.6117 21.9025C18.3938 21.2227 17.9887 20.6798 17.4703 20.2713C16.9564 19.8663 16.3298 19.5895 15.6597 19.438C15.7161 20.0359 16.0258 20.5564 16.4696 20.9625C17.0031 21.4505 17.7257 21.7756 18.4494 21.882C18.5046 21.8901 18.5587 21.897 18.6117 21.9025ZM28.1884 25.4455C28.208 25.7237 28.4496 25.9334 28.7278 25.9138C29.0061 25.8942 29.2158 25.6526 29.1961 25.3744C29.1532 24.7734 29.1283 24.1738 29.1444 23.6171C29.1512 23.3805 29.1655 23.1493 29.1889 22.9264C29.3644 22.9208 29.5344 22.9058 29.6975 22.8819C30.6087 22.7479 31.5258 22.3321 32.2108 21.7055C32.9219 21.0547 33.387 20.1792 33.357 19.1507C33.3534 19.0274 33.3438 18.9083 33.3281 18.794L33.3266 18.7798C33.2925 18.5026 33.0401 18.3054 32.7628 18.3395L32.7629 18.3397C31.7161 18.4684 30.7077 18.8452 29.9059 19.4769C29.1687 20.0579 28.608 20.8494 28.3506 21.8563C28.2176 22.3767 28.1547 22.9669 28.1367 23.5895C28.119 24.1994 28.1443 24.8278 28.1884 25.4455ZM30.5304 20.2713C30.012 20.6798 29.6068 21.2227 29.389 21.9025C29.4419 21.897 29.496 21.8901 29.5512 21.882C30.2749 21.7756 30.9976 21.4505 31.531 20.9625C31.9749 20.5564 32.2845 20.0359 32.3409 19.438C31.6709 19.5895 31.0442 19.8663 30.5304 20.2713Z" fill="#FF8C00"/>
</svg>
