<svg width="48" height="49" viewBox="0 0 48 49" fill="none" xmlns="http://www.w3.org/2000/svg">
<path fill-rule="evenodd" clip-rule="evenodd" d="M23.9997 48.617C22.0122 48.6185 20.2891 49.563 18.918 48.4531C18.1144 47.8026 17.4316 46.7786 16.8873 45.1674C17.0721 45.1847 17.2601 45.1937 17.4513 45.1937C19.1567 45.1937 20.9921 44.4824 22.3564 43.3438C23.0484 42.7664 23.6227 42.0774 24.0045 41.3121C24.3863 42.0774 24.9606 42.7664 25.6526 43.3438C27.0168 44.4824 28.8523 45.1937 30.5577 45.1937C30.7455 45.1937 30.9302 45.185 31.1118 45.1683C30.5676 46.779 29.8849 47.8027 29.0814 48.4531C27.7104 49.563 25.9872 48.6185 23.9997 48.617L23.9997 48.617ZM36.1431 11.9188C36.3006 12.1522 36.6174 12.2138 36.8508 12.0564C37.0842 11.8989 37.1458 11.5821 36.9884 11.3487C35.6808 9.40867 33.7814 8.13108 31.5143 7.34068C29.2865 6.56393 26.71 6.26066 23.9997 6.26066C21.2915 6.26066 18.7166 6.56348 16.4898 7.33906C14.224 8.12816 12.325 9.40375 11.0164 11.3408C10.859 11.5742 10.9206 11.8911 11.1539 12.0485C11.3873 12.2059 11.7042 12.1444 11.8616 11.911C13.0372 10.1708 14.7604 9.01886 16.8247 8.29994C18.928 7.56742 21.3916 7.28137 23.9997 7.28137C26.6097 7.28137 29.075 7.56783 31.1794 8.30156C33.2445 9.02157 34.9681 10.1755 36.1431 11.9188ZM32.5802 12.6789C32.7927 12.8628 33.114 12.8396 33.2979 12.6271C33.4817 12.4146 33.4585 12.0933 33.246 11.9094C32.0479 10.8675 30.4526 10.2528 28.7854 9.90038C27.1502 9.55465 25.4503 9.46031 23.9997 9.46031C22.5491 9.46031 20.8493 9.55465 19.214 9.90038C17.5468 10.2528 15.9515 10.8675 14.7534 11.9094C14.5409 12.0933 14.5177 12.4146 14.7016 12.6271C14.8854 12.8396 15.2068 12.8628 15.4192 12.6789C16.4709 11.7644 17.907 11.2172 19.4214 10.8971C20.9675 10.5702 22.5996 10.481 23.9997 10.481C25.3998 10.481 27.0319 10.5702 28.5781 10.8971C30.0924 11.2172 31.5286 11.7644 32.5802 12.6789ZM26.8713 32.5385C26.1176 32.1176 25.0999 32.8867 24.0045 32.8867C22.9092 32.8867 21.8914 32.1177 21.1378 32.5385C20.3497 32.9786 19.8675 33.6143 19.8675 34.445C19.8675 36.0708 21.7713 38.6465 24.0046 38.6465C26.2378 38.6465 28.1415 36.0708 28.1415 34.445C28.1415 33.6143 27.6593 32.9786 26.8713 32.5385ZM13.7498 43.8584C6.81588 41.4804 0.741919 38.5988 3.00783 30.191C4.14078 25.9871 3.31958 21.6024 6.45558 16.9327C7.01853 6.81192 14.6578 3.18887 23.9997 3.18762C33.3417 3.18887 40.9809 6.81192 41.5439 16.9327C44.6799 21.6024 43.8587 25.9871 44.9916 30.191C47.2557 38.5923 41.1931 41.4759 34.2658 43.8528C34.3949 43.7447 34.5196 43.6311 34.6396 43.5122C35.6887 42.4727 36.3757 41.0329 36.5637 39.4426C41.2167 37.8633 42.6219 34.652 42.6261 34.6425C42.7417 34.386 42.6274 34.0843 42.3709 33.9688C42.1144 33.8532 41.8127 33.9674 41.6971 34.2239C41.6935 34.2319 40.5276 36.899 36.5665 38.3621C36.4542 37.4383 36.0642 36.4686 35.5129 35.4644C40.8949 32.4823 42.3087 28.5955 42.3131 28.5839C42.4122 28.3208 42.2792 28.0271 42.0161 27.928C41.753 27.829 41.4593 27.962 41.3602 28.2251C41.3563 28.2356 40.0656 31.7868 34.9967 34.5843C34.4439 33.693 33.7945 32.7781 33.1255 31.8469C39.5943 28.3925 41.2738 23.7633 41.2789 23.7497C41.3769 23.4866 41.243 23.1938 40.9799 23.0959C40.7167 22.9979 40.4239 23.1318 40.326 23.3949C40.3213 23.4074 38.7523 27.7356 32.5269 31.0138C31.0506 28.9536 29.595 26.8312 29.0554 24.8296C29.6192 25.0809 30.2394 25.1856 30.8811 25.1622C31.8372 25.1273 32.8421 24.8057 33.7714 24.2621C34.688 23.7261 35.5367 22.9705 36.195 22.0597C37.0201 20.9181 37.5481 19.5311 37.5423 18.022C37.926 17.8533 38.2778 17.6458 38.586 17.3844C38.8007 17.2028 38.8274 16.8815 38.6458 16.6668C38.4642 16.4521 38.1428 16.4253 37.9281 16.6069C37.0344 17.3648 35.4896 17.5846 33.9203 17.8078C33.4201 17.879 32.9173 17.9505 32.3974 18.0461C29.4962 18.5798 27.0528 19.6972 27.9299 24.4648C28.3996 27.0179 30.2807 29.6332 32.0812 32.1364C32.8949 33.2677 33.6913 34.375 34.3185 35.4236C34.3271 35.4502 34.338 35.4765 34.3514 35.5021C34.3735 35.5448 34.4009 35.583 34.4322 35.6164C35.1896 36.9181 35.668 38.1249 35.5703 39.1688C35.4373 40.5899 34.8445 41.8763 33.9219 42.7905C33.0591 43.6454 31.9012 44.173 30.5577 44.173C29.0852 44.173 27.4943 43.5536 26.3064 42.5623C25.2435 41.6753 24.5149 40.496 24.5149 39.2146C24.5149 38.9328 24.2863 38.7043 24.0045 38.7043C23.7227 38.7043 23.4941 38.9328 23.4941 39.2146C23.4941 40.496 22.7655 41.6753 21.7025 42.5623C20.5147 43.5536 18.9237 44.173 17.4513 44.173C16.1077 44.173 14.9499 43.6454 14.0871 42.7905C13.1645 41.8763 12.5717 40.5898 12.4387 39.1688C12.3401 38.1156 12.8277 36.8968 13.5967 35.5819C13.6159 35.5574 13.6332 35.5308 13.6481 35.5021C13.6543 35.4901 13.66 35.478 13.6652 35.4658C14.2962 34.4046 15.1031 33.2828 15.9278 32.1363C17.7283 29.6331 19.6094 27.0178 20.079 24.4648C20.9561 19.6972 18.5127 18.5798 15.6115 18.0461C15.0917 17.9505 14.5889 17.8789 14.0887 17.8078C12.5193 17.5846 10.9745 17.3648 10.0808 16.6069C9.86614 16.4253 9.54479 16.452 9.36317 16.6667C9.18155 16.8814 9.20829 17.2028 9.42299 17.3844C9.78854 17.6944 10.2152 17.9287 10.6838 18.1121C10.6989 19.5864 11.2223 20.9409 12.0309 22.0596C12.6893 22.9705 13.538 23.7261 14.4545 24.2621C15.3839 24.8057 16.3887 25.1273 17.3448 25.1622C17.8951 25.1822 18.4295 25.1081 18.9262 24.9281C18.3658 26.9019 16.9324 28.9898 15.4794 31.0175C9.24828 27.7388 7.67817 23.4074 7.67348 23.3948C7.57549 23.1317 7.28269 22.9978 7.01958 23.0958C6.75647 23.1938 6.62258 23.4866 6.72057 23.7497C6.72566 23.7632 8.40637 28.3957 14.8808 31.8505C14.2118 32.7818 13.5625 33.6968 13.0098 34.5881C7.935 31.79 6.64318 28.2356 6.63923 28.225C6.54019 27.9619 6.24649 27.8289 5.98338 27.928C5.72027 28.027 5.58728 28.3207 5.68632 28.5838C5.69069 28.5954 7.10592 32.4857 12.4939 35.4683C11.9431 36.4723 11.5536 37.4418 11.442 38.3654C7.47357 36.9029 6.3059 34.2318 6.30229 34.2238C6.18671 33.9673 5.88502 33.8531 5.62851 33.9687C5.37199 34.0843 5.25776 34.386 5.37334 34.6425C5.37756 34.6519 6.78481 37.8677 11.4457 39.4458C11.6343 41.0349 12.321 42.4733 13.3694 43.5122C13.4915 43.6331 13.6184 43.7486 13.7498 43.8583L13.7498 43.8584ZM17.4987 37.1161C17.7969 37.1161 18.0386 37.3578 18.0386 37.6561C18.0386 37.9543 17.7969 38.196 17.4987 38.196C17.2004 38.196 16.9587 37.9543 16.9587 37.6561C16.9587 37.3578 17.2004 37.1161 17.4987 37.1161ZM16.5354 40.2352C16.8337 40.2352 17.0754 40.4769 17.0754 40.7751C17.0754 41.0733 16.8337 41.3151 16.5354 41.3151C16.2372 41.3151 15.9955 41.0733 15.9955 40.7751C15.9955 40.4769 16.2372 40.2352 16.5354 40.2352ZM19.941 40.2352C20.2392 40.2352 20.481 40.4769 20.481 40.7751C20.481 41.0733 20.2392 41.3151 19.941 41.3151C19.6428 41.3151 19.4011 41.0733 19.4011 40.7751C19.4011 40.4769 19.6428 40.2352 19.941 40.2352ZM18.5086 38.8181C18.8069 38.8181 19.0486 39.0598 19.0486 39.3581C19.0486 39.6563 18.8069 39.898 18.5086 39.898C18.2104 39.898 17.9687 39.6563 17.9687 39.3581C17.9687 39.0598 18.2104 38.8181 18.5086 38.8181ZM15.2363 38.661C15.5345 38.661 15.7762 38.9027 15.7762 39.2009C15.7762 39.4991 15.5345 39.7409 15.2363 39.7409C14.938 39.7409 14.6963 39.4991 14.6963 39.2009C14.6963 38.9027 14.938 38.661 15.2363 38.661ZM30.7842 37.1161C30.486 37.1161 30.2442 37.3578 30.2442 37.6561C30.2442 37.9543 30.486 38.196 30.7842 38.196C31.0824 38.196 31.3242 37.9543 31.3242 37.6561C31.3242 37.3578 31.0824 37.1161 30.7842 37.1161ZM31.7475 40.2352C31.4492 40.2352 31.2075 40.4769 31.2075 40.7751C31.2075 41.0733 31.4492 41.3151 31.7475 41.3151C32.0456 41.3151 32.2874 41.0733 32.2874 40.7751C32.2874 40.4769 32.0456 40.2352 31.7475 40.2352ZM28.3419 40.2352C28.0437 40.2352 27.8019 40.4769 27.8019 40.7751C27.8019 41.0733 28.0437 41.3151 28.3419 41.3151C28.6401 41.3151 28.8818 41.0733 28.8818 40.7751C28.8818 40.4769 28.6401 40.2352 28.3419 40.2352ZM29.7742 38.8181C29.476 38.8181 29.2343 39.0598 29.2343 39.3581C29.2343 39.6563 29.476 39.898 29.7742 39.898C30.0724 39.898 30.3141 39.6563 30.3141 39.3581C30.3141 39.0598 30.0724 38.8181 29.7742 38.8181ZM33.0466 38.661C32.7484 38.661 32.5066 38.9027 32.5066 39.2009C32.5066 39.4991 32.7484 39.7409 33.0466 39.7409C33.3448 39.7409 33.5866 39.4991 33.5866 39.2009C33.5866 38.9027 33.3448 38.661 33.0466 38.661Z" fill="#C92A2A"/>
<path fill-rule="evenodd" clip-rule="evenodd" d="M6.02594 13.079C5.1031 11.033 4.27598 10.0323 1.68914 8.82124C-0.0516336 8.00622 0.00660691 6.46093 0.0391575 4.84777C0.0641349 3.60817 -0.273342 2.32833 0.665287 1.30909C3.52198 -1.79316 10.0451 1.11899 12.2793 4.84318C9.28389 6.58885 7.05174 9.26301 6.02594 13.079Z" fill="#C92A2A"/>
<path fill-rule="evenodd" clip-rule="evenodd" d="M41.9742 13.0787C42.897 11.0328 43.7241 10.032 46.3109 8.821C48.0517 8.00598 47.9935 6.4607 47.9609 4.84754C47.9359 3.60793 48.2734 2.32809 47.3348 1.30885C44.4781 -1.79339 37.955 1.11871 35.7207 4.84291C38.7162 6.5885 40.9483 9.26271 41.9742 13.0787Z" fill="#C92A2A"/>
<path d="M15.9465 22.7426C16.8996 22.7426 17.6723 21.9699 17.6723 21.0168C17.6723 20.0637 16.8996 19.291 15.9465 19.291C14.9934 19.291 14.2207 20.0637 14.2207 21.0168C14.2207 21.9699 14.9934 22.7426 15.9465 22.7426Z" fill="#C92A2A"/>
<path d="M32.052 22.7426C33.0051 22.7426 33.7778 21.9699 33.7778 21.0168C33.7778 20.0637 33.0051 19.291 32.052 19.291C31.0988 19.291 30.3262 20.0637 30.3262 21.0168C30.3262 21.9699 31.0988 22.7426 32.052 22.7426Z" fill="#C92A2A"/>
</svg>
